<svg xmlns="http://www.w3.org/2000/svg" version="1.2" viewBox="0 0 512 512" width="512" height="512"><metadata><rdf:RDF xmlns:rdf="http://www.w3.org/1999/02/22-rdf-syntax-ns#" xmlns:dc="http://purl.org/dc/elements/1.1/"><rdf:Description><dc:creator>RealFaviconGenerator</dc:creator><dc:source>https://realfavicongenerator.net</dc:source></rdf:Description></rdf:RDF></metadata><style>.a{fill:#00354e}.b{fill:#009640}.c{fill:#71b961}</style><path fill-rule="evenodd" class="a" d="m280.5 190.2c13 13 13 34.1 0 47.1l-136 136c-13 13-34 13-47 0-13-13-13-34 0-47l136-136.1c13-12.9 34-12.9 47 0z"></path><path fill-rule="evenodd" class="a" d="m334 242.9l-11.9 12"></path><path class="b" d="m445 427.4l-64.5-64.3c-30.1 34.9-74.5 56.9-124.2 56.9-90.6 0-164.1-73.4-164.1-164.1 0-90.6 73.5-164.1 164.1-164.1 13.6 0 26.7 1.7 39.3 4.8l71.4-71.2c-33.5-16.1-71-25.1-110.7-25.1-141.1 0-255.6 114.5-255.6 255.6 0 141.2 114.5 255.7 255.7 255.7 74.9 0 142.3-32.3 189.1-83.7 0 0-0.5-0.5-0.5-0.5z"></path><path class="c" d="m0.7 255.9c0-141.1 112.6-255.6 253.8-255.6 39.6 0 79 9 112.5 25.1l-71.4 71.2c-12.5-3.1-27.6-4.8-41.1-4.8 0 0-200.3-12.2-250.8 147.9z"></path><path class="a" d="m511.1 126.8l-0.2-4.3c-0.8-17.1-15.4-30.4-32.5-29.6l-135 6.2c-17.1 0.8-30.4 15.5-29.6 32.6l0.2 4.2c0.7 17.1 15.4 30.5 32.5 29.7l44.1-2.1-25.4 25.4-77.3 77-54.3 54.1c-13 13-13.1 34.1-0.1 47.1 13 13 34 13 47 0l76.2-75.9 83.5-83.2-2.4 43.2c-1 18.3 13.1 34.1 31.4 35.1 18.2 1 34-13.1 35-31.4l6.9-125.1q0.1-1.5 0.1-3z"></path><path fill-rule="evenodd" class="b" d="m257 180.5c18.4 0 33.3 14.9 33.3 33.2v129.9c0 18.3-14.9 33.2-33.3 33.2-18.3 0-33.2-14.9-33.2-33.2v-129.9c0-18.3 14.9-33.2 33.2-33.2z"></path><path fill-rule="evenodd" class="a" d="m257 180.5c18.4 0 33.3 14.9 33.3 33.2 0 18.4-14.9 33.3-33.3 33.3-18.3 0-33.2-14.9-33.2-33.3 0-18.3 14.9-33.2 33.2-33.2z"></path></svg>