<svg xmlns="http://www.w3.org/2000/svg" width="519" height="186" xmlns:v="https://vecta.io/nano"><path d="M248.6 77l19 1.2q-1.3 12.4-9.2 19.1-7.9 6.7-19.4 6.7-13.8 0-22.3-9.2-8.5-9.1-8.5-25.2c0-10.8 2.7-19.3 8.1-25.8q8-9.8 22.4-9.8 13.5 0 20.7 7.5 7.3 7.4 8.2 19.8l-19.4 1q0-6.8-2.6-9.8-2.6-3.1-6.2-3.1-9.8 0-9.8 19.8 0 11.1 2.6 15.1 2.5 3.9 7.1 4 8.3 0 9.3-11.3zm56 27q-14.4 0-23.4-9.5-9-9.5-9-25.4c0-10.6 2.9-18.5 8.6-25.1q8.6-10 24-10 14.1 0 23 9.4 9 9.3 9 24.9c0 10.4-3 19.4-9 25.9q-9 9.8-23.3 9.8zm-.1-15.4q5.3 0 7.6-4.6 2.3-4.6 2.3-16.9 0-17.7-9.5-17.6-10.2 0-10.2 20.1 0 19 9.8 19zm99.1 14.3h-17l-18.6-30q-3.6-5.7-7.2-14 1.6 6.6 1.7 11.2v32.8h-16.9V35.1h19.6L381 59.9q4.8 7.4 7.2 13-1.6-8.7-1.6-17.7V35.1h17v67.8zm39.7-51.6v51.6h-19.8V51.3h-14V35.1h47.8v16.2h-14zm53.7 51.6l-3.9-13.4H475l-4.1 13.4H454l20.9-67.8h22l21.3 67.8H497zm-18.5-28.2h11L484 55.1z" fill="#00354e"/><path d="M214.5 161.4h-5.7v-45.7h5.7zm43.1 0h-4.9v-21.7q0-4.7-2.1-6.6-2-1.9-4.9-1.9-4 0-6.7 3.2-2.8 3.2-2.8 8.4v18.6H231v-33.8h4.9v6.2q4.1-7.2 10.6-7.2 3.8 0 6.5 2 2.6 2 3.6 4.4 1 2.4 1 8.8v19.6zm31.3-3.6v4.2q-2.7.3-4.8.3-9.8 0-9.8-10.2v-20.4h-6v-4.1h6l.2-8.5 4.9-.5v9h7.6v4.1h-7.6V153q0 5.2 5.5 5.2 1.8 0 4-.4zm32.4-6.5l4.9 1q-1.3 4.3-5.2 7.2-3.9 2.8-9.1 2.8-7 0-11.3-4.9-4.2-4.8-4.2-12.7c0-5.3 1.5-9.8 4.4-13.1q4.5-5 11.2-5c4.5 0 8 1.6 10.7 4.6q4 4.6 4.1 13.7h-24.6q0 7.7 3.2 10.4 3.2 2.7 6.8 2.7 6.5 0 9.1-6.7zM321 141q0-2.8-.9-5-.9-2.2-3-3.8-2-1.6-5-1.6-3.9.1-6.6 2.9-2.7 2.8-3.1 7.5H321zm46.8-18.7v4.2q-3.6 0-4.9.8-1.2.8-1.6 3 3.3 3.8 3.3 8.2c0 2.9-1.2 5.7-3.6 7.9q-3.5 3.3-9.4 3.3-1.4 0-2.4-.2-1.8-.3-2.3-.3-.9 0-2.2.8-1.2.9-1.2 2.3 0 2 1.8 2.6 1.9.7 8.7.8 5.8.2 8.5.8 2.8.6 4.7 2.8 1.9 2.1 1.9 5.2 0 9.6-17 9.6-8 0-11.7-2.4-3.8-2.4-3.7-6.5 0-4.9 5.1-6.8-3.3-2.1-3.3-5.4 0-3.9 4.7-6-4.4-3.5-4.4-8.9 0-5 3.8-8.3 3.7-3.2 9.1-3.2 3.8 0 6.9 1.5.5-3.3 2.4-4.6 1.8-1.3 5.5-1.3.4 0 1.3.1zM345.4 160q-3.6 1.6-3.6 4.7 0 2.5 3 4 3 1.4 7.7 1.4 4.4 0 8-1.2 3.6-1.3 3.6-4.2 0-1.5-1.1-2.6-1.1-1-2.9-1.2-1.9-.3-6.5-.4-5.5-.2-8.2-.5zm6.3-14.3q3.4 0 5.5-2 2.1-2.1 2.1-5.4c0-2.2-.7-4-2.2-5.5q-2.2-2.1-5.3-2.1c-2.1 0-3.7.7-5.3 2q-2.3 2-2.3 5.7 0 3.3 2.1 5.3 2.1 2 5.4 2zm32.9 15.7h-5.3v-33.8h4.6v7.9q2.5-5.6 4.9-7.3 2.5-1.6 5.1-1.6.8 0 2.1.1v5h-1.1q-4.4 0-7.2 3.3-2.9 3.2-3.1 8.5v17.9zm49.2 0h-5.2q-.2-1.6-.6-6.1-3.4 7-11.8 7-5.7 0-8.7-3-3.1-3-3.1-7.2 0-5.2 4.4-8.5 4.3-3.3 14.7-3.3 1.5 0 4.5.2 0-4.1-.6-5.9-.6-1.7-2.6-2.8-2-1.1-5.3-1.1-8 0-9.3 6.1l-4.9-.8q1.8-9.4 15-9.4 7 0 9.9 3.1 2.9 3.1 2.9 10.8v14.3q0 3.6.7 6.6zm-5.8-16.9q-3.2-.2-4.9-.2-6.2 0-9.6 2-3.5 2.1-3.5 6 0 2.5 1.9 4.2 1.8 1.8 5.4 1.8 4.7 0 7.8-3.5 3-3.4 3-8.1 0-.9-.1-2.2zm47.5-28.8v45.7h-4.7v-5.8q-3.6 6.7-10.7 6.7-5.9 0-9.7-5-3.9-4.9-3.9-12.5c0-5.1 1.3-9.5 3.8-13q3.8-5.2 10.1-5.2c4.1 0 7.3 1.9 9.9 5.6v-16.5zm-5.3 24.9q0-4.4-2.7-7.1-2.7-2.7-6.3-2.7-3.9 0-6.4 3.5-2.6 3.5-2.6 9.8 0 6.8 2.4 10.3 2.3 3.6 6.3 3.6 3.7 0 6.5-3.1 2.8-3.1 2.8-7.3v-7zm47.8 20.8h-5.2q-.3-1.6-.6-6.1-3.5 7-11.9 7-5.7 0-8.7-3-3-3-3.1-7.2 0-5.2 4.4-8.5 4.3-3.3 14.8-3.3 1.4 0 4.5.2 0-4.1-.6-5.9-.7-1.7-2.7-2.8-2-1.1-5.3-1.1-8 0-9.3 6.1l-4.8-.8q1.8-9.4 14.9-9.4 7 0 9.9 3.1 3 3.1 3 10.8v14.3q0 3.6.7 6.6zm-5.8-16.9q-3.2-.2-4.9-.2-6.2 0-9.7 2-3.4 2.1-3.4 6 0 2.5 1.8 4.2 1.9 1.8 5.4 1.8 4.7 0 7.8-3.5 3.1-3.4 3.1-8.1 0-.9-.1-2.2z" fill="#009640"/><path d="M102 69.3c4.8 4.7 4.8 12.4 0 17.1l-49.4 49.4c-4.7 4.7-12.3 4.7-17 0-4.8-4.7-4.8-12.4 0-17.1L85 69.3c4.7-4.7 12.3-4.7 17 0zm19.5 19.1l-4.4 4.4" fill="#00354e" fill-rule="evenodd"/><path d="M161.8 155.4l-23.4-23.3c-11 12.6-27.1 20.6-45.1 20.6-32.9 0-59.6-26.6-59.6-59.5 0-33 26.6-59.7 59.6-59.7 4.9.1 9.7.7 14.2 1.8l26-25.9C121.3 3.6 107.7.3 93.3.3 42 .3.4 41.9.4 93.1.4 144.4 42 186 93.3 186c27.2 0 51.7-11.7 68.7-30.4z" fill="#009640"/><path d="M.4 93.2C.4 41.9 41.3.3 92.6.3c14.4 0 28.7 3.3 40.8 9.1l-25.9 25.9c-4.6-1.1-10-1.7-14.9-1.7 0 0-72.8-4.5-91.1 53.6z" fill="#71b961"/><path d="M185.8 46.3l-.1-1.6c-.3-6.2-5.6-11.1-11.8-10.8l-49 2.3c-6.2.3-11.1 5.6-10.8 11.8l.1 1.6c.3 6.2 5.6 11 11.8 10.7l16-.7-9.2 9.2-28.1 28L85 116.4c-4.7 4.7-4.7 12.4 0 17.1s12.3 4.7 17 0l27.7-27.6L160 75.7l-.9 15.7c-.3 6.7 4.8 12.4 11.4 12.8 6.7.3 12.4-4.8 12.8-11.4l2.5-45.5q0-.5 0-1.1z" fill="#00354e"/><g fill-rule="evenodd"><path d="M93.5 65.8c6.7 0 12.1 5.4 12.1 12V125a12.08 12.08 0 1 1-24.2 0V77.8c0-6.6 5.4-12 12.1-12z" fill="#009640"/><path d="M93.5 65.8c6.7 0 12.1 5.4 12.1 12a12.08 12.08 0 1 1-24.2 0c0-6.6 5.4-12 12.1-12z" fill="#00354e"/></g></svg>